<svg xmlns="http://www.w3.org/2000/svg" width="720" height="520" viewBox="0 0 720 520" fill="none">
  <defs>
    <linearGradient id="authBg" x1="0" y1="0" x2="720" y2="520" gradientUnits="userSpaceOnUse">
      <stop stop-color="#236FC0"/>
      <stop offset="0.55" stop-color="#5560D6"/>
      <stop offset="1" stop-color="#F5A05A"/>
    </linearGradient>
  </defs>
  <rect width="720" height="520" rx="36" fill="url(#authBg)"/>
  <rect x="58" y="58" width="604" height="404" rx="28" fill="#F8FBFF"/>
  <rect x="92" y="92" width="196" height="18" rx="9" fill="#DCE7FF"/>
  <rect x="92" y="126" width="310" height="20" rx="10" fill="#8CA4FF"/>
  <rect x="92" y="164" width="274" height="14" rx="7" fill="#E4E9F9"/>
  <rect x="92" y="188" width="246" height="14" rx="7" fill="#E4E9F9"/>
  <rect x="92" y="248" width="156" height="54" rx="27" fill="#5F73FF"/>
  <rect x="266" y="248" width="156" height="54" rx="27" fill="#FFFFFF" stroke="#D8E0F5"/>
  <rect x="418" y="118" width="192" height="248" rx="26" fill="#E9F5FF"/>
  <circle cx="514" cy="194" r="48" fill="#FFD6B3"/>
  <path d="M466 188C472 146 560 144 564 190" stroke="#5A3B2A" stroke-width="16" stroke-linecap="round"/>
  <rect x="454" y="248" width="120" height="80" rx="26" fill="#FF8A5D"/>
  <rect x="438" y="344" width="152" height="24" rx="12" fill="#5E8CE9"/>
</svg>
