<svg xmlns="http://www.w3.org/2000/svg" width="720" height="420" viewBox="0 0 720 420" fill="none">
  <defs>
    <linearGradient id="bg4" x1="0" y1="0" x2="720" y2="420" gradientUnits="userSpaceOnUse">
      <stop stop-color="#FFFFFF"/>
      <stop offset="0.55" stop-color="#FFF6FF"/>
      <stop offset="1" stop-color="#FFE3C9"/>
    </linearGradient>
  </defs>
  <rect width="720" height="420" rx="32" fill="url(#bg4)"/>
  <rect x="48" y="52" width="624" height="256" rx="24" fill="#FAFBFF" stroke="#E5D9FF" stroke-width="2"/>
  <rect x="78" y="88" width="130" height="184" rx="18" fill="#F2EEFF"/>
  <rect x="236" y="88" width="190" height="28" rx="14" fill="#D7CCFF"/>
  <rect x="236" y="130" width="134" height="16" rx="8" fill="#E7E2FF"/>
  <rect x="236" y="158" width="202" height="16" rx="8" fill="#E7E2FF"/>
  <rect x="236" y="198" width="136" height="84" rx="16" fill="#FFFFFF" stroke="#EAE5FF"/>
  <rect x="396" y="198" width="170" height="84" rx="16" fill="#FFFFFF" stroke="#EAE5FF"/>
  <path d="M586 62C635 44 670 50 690 90V248C657 214 614 220 586 238V62Z" fill="#FF9C59" fill-opacity="0.6"/>
  <text x="286" y="200" fill="#242424" font-size="46" font-family="Segoe UI, Arial" font-weight="800">Build a Task</text>
  <text x="286" y="254" fill="#242424" font-size="46" font-family="Segoe UI, Arial" font-weight="800">Manager Tool</text>
</svg>
